<svg xmlns="http://www.w3.org/2000/svg" viewBox="0 0 524.96 321.27"><title>FPT</title><g id="cdr_layer2"><path d="M8.71-183.36H-90.23c-29.78,4.09-50.58,20.27-58.49,51.05L-184.48,29.89h98.27C-57.15,27-37.2,5.25-29.4-17.57Z" transform="translate(184.48 238.64)" fill="#0071bc" fill-rule="evenodd"/><path d="M184.61-238.63H89.76C62.61-235.39,40.2-219.46,29-188.54L-29.13,82.64H67.72c33.51-3.72,54.37-26.39,58.11-50.09Z" transform="translate(184.48 238.64)" fill="#f58220" fill-rule="evenodd"/><path d="M340.48-183.36H241.55c-29.78,4.09-50.58,20.27-58.49,51.05L147.29,29.89h98.27c29.07-2.9,49-24.63,56.82-47.46Z" transform="translate(184.48 238.64)" fill="#72bf44" fill-rule="evenodd"/><path d="M242.19-109.07H220.82a16.84,16.84,0,0,1-12.44-4.81A16.45,16.45,0,0,1,203.57-126a22.6,22.6,0,0,1,.46-4.43h85.18a16.83,16.83,0,0,1,12.44,4.81,16.26,16.26,0,0,1,4.81,12,23.31,23.31,0,0,1-.46,4.58H263.41L249.82-45.27a25.83,25.83,0,0,1-9.39,15A25.39,25.39,0,0,1,224-24Z" transform="translate(184.48 238.64)" fill="#fff" fill-rule="evenodd"/><path d="M-107.28-130.6a25.21,25.21,0,0,0-16.41,6.26,27,27,0,0,0-9.54,15.11h0L-151.4-23.74c5.9,0,13.52-2.09,18.56-6.26a26.4,26.4,0,0,0,9.39-15.11l4.58-21.37h40.59a25.5,25.5,0,0,0,16.49-6.26,26,26,0,0,0,9.46-15.11h-62l4.58-21.37h62a25.21,25.21,0,0,0,16.41-6.26A27,27,0,0,0-21.8-130.6Z" transform="translate(184.48 238.64)" fill="#fff" fill-rule="evenodd"/><path d="M138-109.23a21.78,21.78,0,0,0,.46-4.58,16.13,16.13,0,0,0-4.88-12,17.1,17.1,0,0,0-12.52-4.81H41.16l-.14-.17,0,.17h0c-.05.26-.1.52-.14.78L26.47-63h0L18.21-23.74A25.21,25.21,0,0,0,34.62-30,26.17,26.17,0,0,0,44-45.11l4.54-21.17h0l0-.2h58.9a25.39,25.39,0,0,0,16.41-6.18,26.62,26.62,0,0,0,9.54-15.19h0Zm-79.4,0H115l-4.58,21.37H53.61Z" transform="translate(184.48 238.64)" fill="#fff" fill-rule="evenodd"/></g></svg>